<svg id="Layer_1" data-name="Layer 1" xmlns="http://www.w3.org/2000/svg" viewBox="0 0 100 100"><defs><style>.cls-1{fill:#dd463c;}.cls-2{fill:#fff;}</style></defs><title>ilka graphics</title><rect class="cls-1" y="0.08" width="100" height="100"/><path class="cls-2" d="M77.55,69.38c2.6,2.2,2.9,5.1,3.9,7.7H82c1.1-3.9,2.3-7.9,3.4-12,1.4.7,1.2,1.6,1.1,2.5-.4,2.6-.8,5.2-1.1,7.8a5.74,5.74,0,0,0,.1,1.2c2.2-3.3,3.8-7.3,8-8.8,1,.5.7,1.4.6,2.2a29.33,29.33,0,0,1-3,8.6c-1.8,3.1-3.1,6.5-4.7,9.8-.8,1.8-1.6,3.7-3.7,4.5-.4.2-.6.8-1,1.2a1.36,1.36,0,0,1-2.3-.2l-.3-.6c-1.8-4.7-3.6-9.3-5.4-14-.4-1-1-1.9-1.3-2.9s-.4-2.1-.7-3.3c2.3.1,3.2,1.8,4.2,3.2s1.9,2.9,3.1,4.3c-.4-1.8-.8-3.5-1.2-5.3C77.55,73.28,77,71.58,77.55,69.38Z"/><path class="cls-2" d="M13.85,75.58c1.2-3.7.7-7.6,2.3-11.4a2.49,2.49,0,0,1,.9,2.4c0,3.1.1,6.2.1,9.2,0,.7.2,1.5.3,2.5,1.7-1.2,2.2-3,3.3-4.3s2.1-2.7,3.2-4.2c.7.4,1.4.7,2,1.1,1.9,1,2.3,2.2,1.1,4.1-1.6,2.6-3.2,5.2-4.9,7.8a6.42,6.42,0,0,1-1,1.3,9.5,9.5,0,0,0-2.9,6.1c-.1.9-.2,1.7-1.1,2.1s-1.6-.1-2.3-.7a9.58,9.58,0,0,1-1.7-1.8c-2.5-4.1-4.9-8.2-7.3-12.3a7.4,7.4,0,0,1-.9-4.4c1.9,1.7,3.6,3.3,5.4,5,.6-4.1-1.7-8.1-.5-12.5a20.68,20.68,0,0,1,2.3,5.1C12.75,72.18,13.35,73.88,13.85,75.58Z"/><path class="cls-2" d="M74.65,15.68c2.9-.2,2.9,2.6,4.7,4.2.3-4.2-.4-7.9-.6-11.8a2.25,2.25,0,0,1,2.8,1.5c.5,1.4,1,2.7,1.6,4.2,1.1-1,1.2-2.3,1.5-3.4a15.72,15.72,0,0,0,.4-2.3c.2-.7.4-1.4,1.4-1.2a1.3,1.3,0,0,1,1,1.6c-.1,1.1-.2,2.3-.4,3.4a2.27,2.27,0,0,0,.1,1.6l1.5-1.8a20.89,20.89,0,0,1,2-2.2,2.57,2.57,0,0,1,4,1.1,4.46,4.46,0,0,1-.2,4.2c-1.4,1.9-2.8,3.7-4.1,5.6-1.5,2.2-2.8,4.4-4.2,6.6-.6,1-1.2,2-1.7,3-1.1,2.2-2.3,2.3-3.8.3a25.56,25.56,0,0,1-2.7-4.5c-1.2-3-2.2-6.1-3.3-9.1Z"/><path class="cls-2" d="M22,43.28c.7-.7,1.3-.4,2.1,0a13,13,0,0,1,4.8,4.2,13.09,13.09,0,0,0,1.3,1.6c.2-.5.4-.7.4-1-.3-2.8-.6-5.7-1-8.5-.1-.9-.4-1.8.5-2.8,1.5.9,1.8,2.6,2.3,4,.5,1.8.8,3.6,1.2,5.5,1.1-.5.9-1.6,1.1-2.4.4-1.6.7-3.3,1-5a2.84,2.84,0,0,1,.4-1.3,5,5,0,0,1,1-1.1c.4.4.9.8,1,1.3a12.19,12.19,0,0,1,0,2.7c-.1,1.4-.1,2.8-.2,4.3.2.1.3.1.5.2.5-.6.9-1.3,1.4-1.9.9-1.2,1.7-2.4,2.6-3.5,1.1-1.2,1.8-1.2,3.5.2-1.3,2.9-2.5,6-4.1,8.8A39.47,39.47,0,0,0,38,59.18c-.4,1.9-1.7,2.8-3.5,1.9a9.06,9.06,0,0,1-3.5-3.2c-2.4-5.1-5.9-9.5-8.9-14.3C22.05,43.68,22.05,43.48,22,43.28Z"/><path class="cls-2" d="M54.05,75.28c.5-.8,1-1.5,1.4-2.3.7-1.2,1.5-2.4,2.3-3.5a2.05,2.05,0,0,1,2.8-.6c1,.5.8,1.3.5,2.2-.7,2-1.1,4.1-2.3,6a5.89,5.89,0,0,0-1,2.6,21,21,0,0,1-2.3,6.5,54.22,54.22,0,0,0-2.2,5.6c-.7,1.9-1.7,2.2-3,.8a21.58,21.58,0,0,1-3.9-5.1c-1.9-3.5-3.4-7.2-5-10.9-.2-.5-.3-1.1-.6-2.2,3,1.6,3.7,4.5,6.1,6.4.1-4.1.5-8.1-.6-12.1,2.8.5,2.7,3.2,4.3,4.7,1.2-1.8,1-4.3,2.9-5.9,1.4,2.6-.5,5.3.1,7.8C53.65,75.18,53.85,75.28,54.05,75.28Z"/><path class="cls-2" d="M58.35,43.58c2.8,1.7,4.5,4.5,6.7,7.5a9.35,9.35,0,0,0,0-1.7c-.4-2.3-.8-4.5-1.1-6.8-.1-1-.4-2.1.7-3.1,1.7,1.3,1.7,3.6,3.2,5.2,1.7-1.8,2.4-4.1,3.3-6.2,1.6.4,1.4,1.6,1.3,2.7-.2,1.9-.4,3.8-.7,5.9,1.3-.5,1.5-1.6,1.9-2.4a5.27,5.27,0,0,1,2.5-2.6c1.2-.5,2.1,0,2,1.3-.2,2.6-.3,5.2-2.2,7.4a22.66,22.66,0,0,0-4.6,9,9.38,9.38,0,0,1-.6,1.5c-1.1,2.2-3.4,2.5-4.9.4a13.5,13.5,0,0,1-1.5-2.6l-6-13.2a8.45,8.45,0,0,1-.5-1.7C58.05,43.88,58.25,43.78,58.35,43.58Z"/><path class="cls-2" d="M42,10.38a5.48,5.48,0,0,1,3.4,2.4,44.18,44.18,0,0,0,4.4,5.3c.1-3.4-1.2-6.7-1.1-10.2,1.8.3,2.3,1.6,2.7,2.8a19.82,19.82,0,0,1,.8,3.5h.5l2.4-8.1c1.3-.1,1.6.4,1.5,1.4-.4,2.5-.7,5-1.1,7.5-.1.7-.2,1.3-.4,2.4a7.61,7.61,0,0,0,1.2-1c1.8-2.4,3.6-4.8,5.5-7.2.2-.3.4-.8.7-.9a4,4,0,0,1,2.1-.3c.9.3.7,1.3.4,2-.9,1.7-1.9,3.3-2.7,5.1-1.9,4.2-3.7,8.4-5.4,12.7-.6,1.6-1.8,1.3-2.8,1.6A87,87,0,0,1,42.35,12,3.41,3.41,0,0,1,42,10.38Z"/><path class="cls-2" d="M12.35,5.38c4,.2,3.3,3.9,5.1,5.9.5-1.7.9-3.1,1.4-4.5a1.68,1.68,0,0,1,1.2-1,2.48,2.48,0,0,1,1.5.8c.2.3.1.9.1,1.3-.2,2.1-.4,4.1-.7,6.2a6.1,6.1,0,0,0,.1,2.3c1.1-1.5,2.2-3.1,3.4-4.5a5.18,5.18,0,0,1,2.2-1.4c1.3-.4,2.2.7,1.8,2l-.3.6c-2.6,4.3-5.1,8.6-7.7,12.8-.2.3-.4.7-.6,1-.9,1.2-1.9,1.5-3.1.6a7.21,7.21,0,0,1-2-1.9c-2.5-4-4.9-8-7.3-12.1a10.22,10.22,0,0,1-.8-2.3c2.2,0,3.1,1.3,4,2.6,1.3,2,2.8,3.9,4.2,5.8.1.1.3.1.6.1a3,3,0,0,0-.1-2.6c-.9-3.2-1.8-6.3-2.7-9.5A12.22,12.22,0,0,0,12.35,5.38Z"/></svg>