<svg id="Layer_1" data-name="Layer 1" xmlns="http://www.w3.org/2000/svg" viewBox="0 0 100 100"><defs><style>.cls-1{fill:#dd463c;}.cls-2{fill:#fff;}</style></defs><title>ilka graphics</title><rect class="cls-1" width="100" height="100"/><path class="cls-2" d="M67,36.1c1.9-1.3,3.6-2.4,5.3-3.6,3.4-2.4,6.7-5,10.1-7.3a48.24,48.24,0,0,1,6.3-3.5,5.32,5.32,0,0,1,3.3-.1,2.16,2.16,0,0,1,.7,3.9c-4.7,3.9-9.4,7.8-14.3,11.4-1.9,1.5-4.3,2.4-6.5,3.5a2.09,2.09,0,0,1-2.8-.8C68.41,38.6,67.81,37.5,67,36.1Z"/><path class="cls-2" d="M58.61,63.1c.7.9,1.5,1.7,2.1,2.6a203.67,203.67,0,0,1,11.2,20.5c.9,2.1.5,4.2.1,6.2-.1.5-.9,1.1-1.5,1.3-.2.1-.9-.4-1.2-.8-3.2-5.3-6.4-10.6-9.5-16a13.71,13.71,0,0,1-1.5-7.5c.1-2-.1-4.1-.2-6.1A.59.59,0,0,0,58.61,63.1Z"/><path class="cls-2" d="M33,62.1c.3.4.4.4.4.5-2,6.4-4.8,12.1-11.7,14.7-2,.8-3.9,1.6-5.9,2.5a2.29,2.29,0,0,1-2.9-.4c-.9-.9-1.4-2-.8-3.1a20.87,20.87,0,0,1,2.7-3.9c3.1-3.2,7.2-4.7,11-6.9,1.5-.9,3.1-1.6,4.7-2.4A26,26,0,0,1,33,62.1Z"/><path class="cls-2" d="M79.71,54.1c1.2.3,3.5.9,5.7,1.6a4.4,4.4,0,0,1,2.4,1.4,18.68,18.68,0,0,1,2,5.1c.3,1.2-1.1,2.2-2.6,2a55.63,55.63,0,0,1-16.4-5c-1.5-.8-2.6-3.7-2.2-5.4a1.93,1.93,0,0,1,2.5-1.4C73.71,52.8,76.21,53.4,79.71,54.1Z"/><path class="cls-2" d="M58.91,31.8c-1.6-1.7-2.2-3-2-4.9.3-2.4,0-4.8.2-7.1.4-3.2.9-6.5,1.6-9.6.4-1.8,2.1-2.6,3.9-2.5s3.5,1.1,3.9,2.7a9.43,9.43,0,0,1,.2,4.4C65,19.3,63,23.6,61.11,28,60.61,29.1,59.81,30.2,58.91,31.8Z"/><path class="cls-2" d="M46,67c-.1,5.8-.5,11.4-3.1,16.6-1.5,3.1-2.3,6.7-3.4,10-.2.6-.3,1.2-.5,1.8-.3.9-1,1.8-1.9,1.5a2.85,2.85,0,0,1-1.7-1.7,24.2,24.2,0,0,1,.3-6.6,54.71,54.71,0,0,1,5.1-12.5c1.2-2.1,2-4.3,3.1-6.5C44.51,68.7,45.31,67.9,46,67Z"/><path class="cls-2" d="M42.91,27.6c-2.4,1.3-2.6,1.3-3.9-.2a80.5,80.5,0,0,1-11.4-15.2c-1.1-2-1-3.3.4-4.5a3.23,3.23,0,0,1,4.5.6,27.47,27.47,0,0,1,2.6,4Q39,19.8,42.91,27.6Z"/><path class="cls-2" d="M33.41,36c-.1,3.5-2.8,4.5-5.8,3.4-3.9-1.5-7.9-3.2-11.8-4.8a10.53,10.53,0,0,1-3.4-2c-1.5-1.5-1.2-2.5.7-3.4a5.4,5.4,0,0,1,4.8-.2c4.8,2.1,9.8,3.7,14.3,6.4A6.72,6.72,0,0,1,33.41,36Z"/><path class="cls-2" d="M31.11,49.3c-2.3,2.7-4.7,4.7-7.9,5-4.3.4-8.7.5-13,.6a1.75,1.75,0,0,1-1.5-2.8c1-1.5,2.2-3.1,4.2-3.4,5.4-.7,10.8-1.3,16.1,0C29.51,48.8,30,49,31.11,49.3Z"/></svg>