<svg id="Layer_1" data-name="Layer 1" xmlns="http://www.w3.org/2000/svg" viewBox="0 0 100 100"><defs><style>.cls-1{fill:#dd463c;}.cls-2{fill:#fff;}</style></defs><title>ilka graphics</title><rect class="cls-1" width="100" height="100"/><path class="cls-2" d="M31,29c-1.3.3-2.3.5-3.3.7l-5.5.6c-1,.1-2.1.1-3.1.2a5.7,5.7,0,0,1-1.3.1L8,30C6.9,27,6.2,11.4,7.3,6.8c3.6-.4,7.3-.9,11-1.3,2.6-.3,5.3-.3,8-.5,1.3-.1,2.3.1,2.9,1.4.1.3.5.8.9.8,1.7.3,2,1.5,2,3-.1,2.7-.3,5.3-.3,8a33.82,33.82,0,0,0,.3,5.5A9.58,9.58,0,0,1,31,29Zm-4.5-4.2c-.1-4-.3-7.9-.4-11.7-.1-1.8-.2-2.1-2.1-2-3.3.1-6.6.2-9.9.4-2.3.1-2.7.5-2.6,2.8.1,2.9.3,5.8.5,8.6a16.25,16.25,0,0,0,.4,1.9Z"/><path class="cls-2" d="M67.9,7.4H85.6a20.61,20.61,0,0,1,2.6.3A2.24,2.24,0,0,1,90.4,10c.2,1.5,1,2.9,1.2,4.4.4,3.2.5,6.5.7,9.7.1,2.2,0,4.4.1,6.6,0,2.5-1.5,3.8-4,3.5-2.9-.3-5.9-.5-8.8-1a73.12,73.12,0,0,1-7.8-1.8A2.46,2.46,0,0,1,70,29.1c-.4-3.1-.8-6.1-1.2-9.2-.2-1.9-.5-3.8-.6-5.7C68,12.1,68,9.9,67.9,7.4ZM74,11.6c.2,5.3.3,10.4.5,15.7,4.2-1.1,8,.5,12.2.7.1-5.5.2-10.8.3-16.3C82.7,11.6,78.5,11.6,74,11.6Z"/><path class="cls-2" d="M32.7,50c0,2.4.1,4.7,0,7.1a24.24,24.24,0,0,1-1,4.5c-.3.9-1,1.1-1.9,1.2-1.1.1-2.3.5-3.4.6a45.53,45.53,0,0,1-5.3.4c-2.1,0-4.3-.2-6.4-.3a27.28,27.28,0,0,0-4.1.3c-1.7.2-2.8-.6-2.9-2.3-.3-5.2-.6-10.3-.9-15.5a10.07,10.07,0,0,1,.1-3c.2-2.1,1.6-3.1,3.7-3,2.7,0,5.4-.2,8.1-.3,3.7-.1,7.4-.3,11-.3,1.5,0,2.6,1.2,2.7,3.1.1,2.5,0,5,0,7.5ZM12.8,44V56.9c0,1.9.1,2,2,2,1.1,0,2.2.1,3.3.1,2.7.1,5.4.2,8.2.2a7.67,7.67,0,0,0,1.9-.5c.1-3.6.2-6.9.3-10.3a16.2,16.2,0,0,0-.1-2.2c-.1-1.6-.4-1.9-2.1-1.9h-.7c-3.4-.1-6.8-.2-10.2-.2A11.33,11.33,0,0,0,12.8,44Z"/><path class="cls-2" d="M8.4,71.8c1.7-.8,3.1-1.7,4.9-.8a2.48,2.48,0,0,0,.9.1c3.4-.7,6.8.2,10.2.1.6,0,1.2-.2,1.7-.2a16.08,16.08,0,0,1,3.1.1c1.2.3,2.4.8,2.5,2.4a4.59,4.59,0,0,0,.7,1.6,5.55,5.55,0,0,1,.6,3.6c-.1,2.9-.1,5.9,0,8.8a6,6,0,0,1-1.8,4.4c-.2.2-.4.3-.5.4-1.3,2.5-3.5,2.1-5.7,2a50.48,50.48,0,0,0-5.5-.1c-2.5.1-5,.5-7.4.7a12.13,12.13,0,0,1-1.8.1A2.39,2.39,0,0,1,8,92.7c0-3.5,0-7.1.1-10.6S8.3,75.3,8.4,71.8Zm4.8,17H26.9c.2-4.9.4-9.4.6-14.2-2.6.3-4.8.6-7.1.7s-4.6-.2-7.2-.3Z"/><path class="cls-2" d="M38.5,9.1c.6-2.1,2.2-2.9,4.4-2.8q5.1.3,10.2.3c1.3,0,2.6-.2,4-.2C59.2,6.2,60.6,7.7,62,9a3.46,3.46,0,0,1,.5,2.1,75,75,0,0,0,1.2,13.4c.4,2.6-1,4.9-2.2,7-.3.5-1.6.8-2.4.8-2.5-.1-5-.3-7.5-.5l-7.7-.6c-.4,0-.7.1-1.1.1-1.9.3-2.3,0-2.8-1.8,0-.1-.1-.3-.1-.4a98.78,98.78,0,0,1-1.1-17.2A26.6,26.6,0,0,0,38.5,9.1Zm5.4,1.6c.5,6,.9,11.6,1.3,17.2a5.9,5.9,0,0,0,.8.4l1.3.3c3.8.5,7.4-.8,11.3-.9-.6-5.5-1.1-10.8-1.7-16.1C52.8,11.2,48.6,11,43.9,10.7Z"/><path class="cls-2" d="M77.5,71.7l8.2.6c1.2.1,2.5-.1,3.7-.1,2.7,0,3.5.6,3.7,3.3a11.83,11.83,0,0,1-.3,5.6c-.5,1.3-.1,2.9.1,4.4.6,3.3-.7,6.1-2.4,8.7a1.43,1.43,0,0,1-1.1.5,4.44,4.44,0,0,1-2-.1c-3-.9-6-.5-9-.3-2,.1-4,.2-6,.2-2.5,0-3.5-1.3-3.1-3.8a21.31,21.31,0,0,0,.2-4.4c.1-3.2,0-6.3.2-9.5.1-2.5,1.1-4.6,4.2-4.7,1.2,0,2.3-.3,3.5-.4C77.5,71.6,77.5,71.6,77.5,71.7Zm9.1,5.5c-4.1-.3-7.9-.6-11.7-.8a4.5,4.5,0,0,0-.2.8c-.1,3.1-.1,6.3-.1,9.4a5.7,5.7,0,0,0,.1,1.3,1.43,1.43,0,0,0,1.7,1.3l8.8-.3c.9,0,1.4-.4,1.4-1.3Z"/><path class="cls-2" d="M41.1,64.2V58.8c0-1.9.2-3.8.3-5.7.1-2.6.1-5.2.3-7.7a11,11,0,0,1,1.2-3.3c.1-.3.7-.5,1.1-.6a4.42,4.42,0,0,1,2-.2c3.5.3,6.9-.2,10.3-.3,1.8,0,3.7.2,5.5.3a1.53,1.53,0,0,1,1.6,1.9c-.4,4.5.7,8.9,1,13.4a25.4,25.4,0,0,1-.3,5.5c-.3,1.9-2.6,3.2-5.1,3.4a56.1,56.1,0,0,1-11.6-.7A58.65,58.65,0,0,0,41.1,64.2ZM59.6,45.6c-4.4-.3-8.4-.6-12.3-.9-.1,2.8.1,5.3-.4,7.7s0,4.7-.3,7.3c2.3.1,4.4.1,6.4.2s4,.3,6.1.5C59.3,55.4,58.1,50.7,59.6,45.6Z"/><path class="cls-2" d="M90.6,40.5c.2,1.2.5,2.3.7,3.4s.3,2.5.5,3.7.4,2.2.4,3.3c0,3.5.1,6.9,0,10.4a7.75,7.75,0,0,1-.7,3,2.88,2.88,0,0,1-3.7,1.4,6.2,6.2,0,0,0-2.3-.4c-3.4.1-6.8.3-10.2.4a19.42,19.42,0,0,1-2.4-.2c-1.5-.1-2-1-2.5-2.4a11.93,11.93,0,0,1-.4-6.2,22.88,22.88,0,0,0-.1-3.7l.3-9.3c.1-1.9.5-2.5,2.3-2.9,2.2-.5,4.3-.7,6.5-1C82.9,39.5,86.5,40.3,90.6,40.5ZM87.1,60.4c.2-.5.4-.6.4-.7v-14c0-1.4-.3-1.7-1.8-1.6-2.4.1-4.7.5-7.1.6-4.5.2-4.3-.3-4,5.1.1,2.8.5,5.6.8,8.4.2,2.1.1,2.2,2.3,2.2Z"/><path class="cls-2" d="M50.3,93.2c-2.5.2-5.4.4-8.3.7-2.4.2-2.8-.3-2.1-2.6a10.9,10.9,0,0,0,.3-2.6c-.1-3.2-.3-6.3-.3-9.5a33.93,33.93,0,0,1,.4-5.5,2.55,2.55,0,0,1,3-2.5c5.5.4,10.9-.3,16.3-.3,1.2,0,2.6-.4,3.4,1a6.7,6.7,0,0,1,.7,1.8c.1,1.8,0,3.5.1,5.3.2,2.6.6,5.3.7,7.9a32,32,0,0,1-.3,5.3c0,.3-.5.8-.8.9a18.51,18.51,0,0,1-4.1.7C56.4,93.7,53.6,93.4,50.3,93.2Zm8.6-18.5H45c.6,4.9,1.3,9.7.1,14.5,4.6-.2,9.1-.4,13.8-.7Z"/></svg>